<svg width="180" height="180" viewBox="0 0 180 180" fill="none" xmlns="http://www.w3.org/2000/svg">
<ellipse opacity="0.1" cx="90" cy="174.6" rx="90" ry="5.4" fill="#B3B4B9" fill-opacity="0.25"/>
<path fill-rule="evenodd" clip-rule="evenodd" d="M43.2001 45C43.2001 39.0353 48.0354 34.2 54.0001 34.2H104.324C104.678 34.2 105.031 34.2174 105.381 34.2518V58.4197C105.381 62.3961 108.604 65.6197 112.581 65.6197H135V110.38C133.26 110 131.454 109.8 129.6 109.8C115.683 109.8 104.4 121.082 104.4 135C104.4 139.12 105.389 143.009 107.142 146.443H54.0001C48.0354 146.443 43.2001 141.608 43.2001 135.643V45ZM109.381 150.043H54.0001C46.0472 150.043 39.6001 143.596 39.6001 135.643V45C39.6001 37.0471 46.0472 30.6 54.0001 30.6H104.324C108.143 30.6 111.806 32.1171 114.506 34.8177L134.382 54.6939C137.083 57.3944 138.6 61.0571 138.6 64.8762V65.4916L138.601 65.6197H138.6V111.455C148.073 115.078 154.8 124.253 154.8 135C154.8 148.918 143.518 160.2 129.6 160.2C121.321 160.2 113.974 156.208 109.381 150.043ZM59.9273 56.3272C60.6302 55.6243 61.7699 55.6243 62.4729 56.3272L68.8501 62.7044L75.2273 56.3272C75.9302 55.6243 77.0699 55.6243 77.7729 56.3272C78.4758 57.0302 78.4758 58.1699 77.7729 58.8728L71.3957 65.25L77.7729 71.6272C78.4758 72.3302 78.4758 73.4699 77.7729 74.1728C77.0699 74.8757 75.9302 74.8757 75.2273 74.1728L68.8501 67.7956L62.4729 74.1728C61.7699 74.8757 60.6302 74.8757 59.9273 74.1728C59.2244 73.4699 59.2244 72.3302 59.9273 71.6272L66.3045 65.25L59.9273 58.8728C59.2244 58.1699 59.2244 57.0302 59.9273 56.3272ZM59.4001 90.9C59.4001 88.4147 61.4148 86.4 63.9001 86.4H90.9001C93.3854 86.4 95.4001 88.4147 95.4001 90.9C95.4001 93.3853 93.3854 95.4 90.9001 95.4H63.9001C61.4148 95.4 59.4001 93.3853 59.4001 90.9ZM63.9001 90C63.403 90 63.0001 90.403 63.0001 90.9C63.0001 91.3971 63.403 91.8 63.9001 91.8H90.9001C91.3972 91.8 91.8001 91.3971 91.8001 90.9C91.8001 90.403 91.3972 90 90.9001 90H63.9001ZM63.9001 100.8C61.4148 100.8 59.4001 102.815 59.4001 105.3C59.4001 107.785 61.4148 109.8 63.9001 109.8H114.3C116.785 109.8 118.8 107.785 118.8 105.3C118.8 102.815 116.785 100.8 114.3 100.8H63.9001ZM63.0001 105.3C63.0001 104.803 63.403 104.4 63.9001 104.4H114.3C114.797 104.4 115.2 104.803 115.2 105.3C115.2 105.797 114.797 106.2 114.3 106.2H63.9001C63.403 106.2 63.0001 105.797 63.0001 105.3ZM144.147 45.4063C142.965 43.7288 140.837 43.0044 138.877 43.6125C135.81 44.5643 134.562 48.2303 136.412 50.8558L140.334 56.4241C141.55 58.1499 142.208 60.2066 142.22 62.3176L142.258 69.1606C142.273 71.778 144.405 73.8889 147.022 73.8773C149.643 73.8657 151.757 71.7313 151.745 69.1107L151.708 61.6782C151.69 58.0468 150.559 54.5081 148.468 51.5393L144.147 45.4063ZM139.944 47.0507C140.413 46.9054 140.921 47.0786 141.204 47.4796L145.525 53.6126C147.192 55.9795 148.094 58.8007 148.108 61.696L148.145 69.1285C148.148 69.7601 147.638 70.2746 147.006 70.2774C146.376 70.2801 145.862 69.7714 145.858 69.1405L145.82 62.2975C145.804 59.4511 144.917 56.6778 143.277 54.3508L139.355 48.7825C138.912 48.1548 139.211 47.2783 139.944 47.0507ZM108 135C108 123.071 117.671 113.4 129.6 113.4C141.529 113.4 151.2 123.071 151.2 135C151.2 146.929 141.529 156.6 129.6 156.6C117.671 156.6 108 146.929 108 135ZM125.1 123.3C125.1 120.815 127.115 118.8 129.6 118.8C132.085 118.8 134.1 120.815 134.1 123.3V134.1C134.1 136.585 132.085 138.6 129.6 138.6C127.115 138.6 125.1 136.585 125.1 134.1V123.3ZM129.6 122.4C129.103 122.4 128.7 122.803 128.7 123.3V134.1C128.7 134.597 129.103 135 129.6 135C130.097 135 130.5 134.597 130.5 134.1V123.3C130.5 122.803 130.097 122.4 129.6 122.4ZM129.6 151.2C127.115 151.2 125.1 149.185 125.1 146.7C125.1 144.215 127.115 142.2 129.6 142.2C132.085 142.2 134.1 144.215 134.1 146.7C134.1 149.185 132.085 151.2 129.6 151.2ZM128.7 146.7C128.7 147.197 129.103 147.6 129.6 147.6C130.097 147.6 130.5 147.197 130.5 146.7C130.5 146.203 130.097 145.8 129.6 145.8C129.103 145.8 128.7 146.203 128.7 146.7Z" fill="#B3B4B9" stroke="#F1F0E6" stroke-linejoin="round"/>
</svg>
