<svg width="68" height="68" viewBox="0 0 68 68" fill="none" xmlns="http://www.w3.org/2000/svg">
<path d="M45.1596 19.1604V29.792H23.8389V19.1604C23.8389 13.2699 28.6087 8.5 34.4992 8.5C37.4588 8.5 40.1023 9.70683 42.0419 11.6176C43.9671 13.5572 45.1596 16.2007 45.1596 19.1604V19.1604Z" fill="#76F083"/>
<path d="M23.8389 30.6541H45.1596V35.7687C45.1596 41.6592 40.3897 46.4291 34.4992 46.4291C28.6087 46.4291 23.8389 41.6592 23.8389 35.7687V30.6541V30.6541Z" fill="#76F083"/>
<path d="M50.4034 30.2086C49.527 30.2086 48.823 30.9126 48.823 31.789V35.0503C48.823 42.6792 43.0762 49.3455 35.4617 49.8484C27.1144 50.4087 20.1608 43.7711 20.1608 35.5532V31.789C20.1608 30.9126 19.4568 30.2086 18.5804 30.2086C17.704 30.2086 17 30.9126 17 31.789V35.0503C17 44.1447 23.7382 52.1184 32.7894 52.966C32.8038 52.966 32.8325 52.966 32.8469 52.966V59.0864H29.9591C29.054 59.0864 28.3356 59.8191 28.3356 60.7099C28.3356 61.6006 29.0683 62.3333 29.9591 62.3333H38.6655C39.5707 62.3333 40.289 61.6006 40.289 60.7099C40.289 59.8191 39.5563 59.0864 38.6655 59.0864H36.1082V52.9517C44.987 52.1184 51.9551 44.6475 51.9551 35.5675V31.8034C51.9551 30.927 51.2511 30.223 50.3747 30.223L50.4034 30.2086Z" fill="#76F083"/>
</svg>
